<svg width="197" height="195" viewBox="0 0 197 195" fill="none" xmlns="http://www.w3.org/2000/svg">
<path d="M115.721 47.179L147.77 22.3581L138.505 61.8215L137.715 65.1863L141.158 64.8833L181.538 61.3294L152.409 89.5194L149.926 91.9229L152.986 93.5294L188.877 112.371L149.131 120.337L145.743 121.017L147.448 124.022L167.456 159.277L129.712 144.491L126.494 143.23L126.304 146.681L124.075 187.156L100.318 154.311L98.2921 151.511L96.2665 154.311L72.5089 187.156L70.28 146.681L70.0899 143.23L66.8718 144.491L29.1286 159.277L49.1359 124.022L50.8417 121.017L47.4529 120.337L7.70716 112.371L43.5985 93.5294L46.6587 91.9229L44.1751 89.5194L15.0458 61.3294L55.426 64.8833L58.8689 65.1863L58.079 61.8215L48.8146 22.3581L80.8632 47.179L83.5957 49.2953L84.7503 46.0377L98.2921 7.83023L111.834 46.0377L112.989 49.2953L115.721 47.179Z" stroke="black" stroke-width="5"/>
</svg>
